<svg width="191" height="423" viewBox="0 0 191 423" fill="none" xmlns="http://www.w3.org/2000/svg">
<path d="M0 0H191V423H0V0Z" fill="#EEEDED"/>
<path d="M13 25C13 19.4772 17.4772 15 23 15H168C173.523 15 178 19.4772 178 25V77C178 82.5228 173.523 87 168 87H23C17.4772 87 13 82.5228 13 77V25Z" fill="#EEEDED"/>
<path d="M25.1559 40H24.4528L28.3892 29.0909H29.1562L33.0927 40H32.3896L28.7994 29.9485H28.7461L25.1559 40ZM26.152 35.8931H31.3935V36.511H26.152V35.8931ZM34.8984 40V31.8182H35.5323V33.0966H35.5909C35.7685 32.6776 36.0685 32.342 36.4911 32.0898C36.9137 31.8342 37.3949 31.7063 37.9347 31.7063C37.9915 31.7063 38.0483 31.7063 38.1051 31.7063C38.1619 31.7063 38.2152 31.7081 38.2649 31.7116V32.3668C38.2223 32.3633 38.1708 32.358 38.1104 32.3509C38.0536 32.3402 37.9826 32.3349 37.8974 32.3349C37.4428 32.3349 37.038 32.4325 36.6829 32.6278C36.3313 32.8232 36.0543 33.093 35.8519 33.4375C35.6495 33.7784 35.5483 34.169 35.5483 34.6094V40H34.8984ZM43.4158 31.8182V32.3988H39.8416V31.8182H43.4158ZM41.0508 29.858H41.6953V38.0664C41.6953 38.4002 41.7592 38.6737 41.8871 38.8867C42.0185 39.0962 42.1889 39.2525 42.3984 39.3555C42.6115 39.4549 42.8388 39.5046 43.0803 39.5046C43.1974 39.5046 43.2986 39.4957 43.3839 39.478C43.4727 39.4602 43.5561 39.4371 43.6342 39.4087L43.794 40C43.6946 40.0355 43.5845 40.0657 43.4638 40.0906C43.343 40.119 43.201 40.1332 43.0376 40.1332C42.6967 40.1332 42.3736 40.0568 42.0682 39.9041C41.7663 39.7514 41.5213 39.5295 41.3331 39.2383C41.1449 38.9471 41.0508 38.5955 41.0508 38.1836V29.858ZM53.2995 40H50.274V29.0909H53.5339C54.5566 29.0909 55.432 29.3075 56.16 29.7408C56.888 30.174 57.4455 30.7955 57.8326 31.6051C58.2232 32.4112 58.4167 33.3789 58.4132 34.5082C58.4096 35.6623 58.2072 36.6495 57.8059 37.4698C57.4047 38.2866 56.824 38.9134 56.0641 39.3501C55.3042 39.7834 54.3826 40 53.2995 40ZM50.9398 39.3821H53.2729C54.2459 39.3821 55.0662 39.1886 55.7338 38.8015C56.4015 38.4109 56.9057 37.8516 57.2466 37.1236C57.5911 36.3956 57.7615 35.5238 57.758 34.5082C57.758 33.5067 57.5929 32.6491 57.2626 31.9354C56.9324 31.218 56.4512 30.6676 55.8191 30.2841C55.1905 29.9006 54.4199 29.7088 53.5073 29.7088H50.9398V39.3821ZM63.9729 40.1705C63.2343 40.1705 62.5915 39.9876 62.0447 39.6218C61.4978 39.256 61.0752 38.7553 60.7769 38.1197C60.4786 37.484 60.3295 36.7596 60.3295 35.9464C60.3295 35.1296 60.4786 34.4016 60.7769 33.7624C61.0787 33.1232 61.4925 32.619 62.018 32.2496C62.5436 31.8803 63.1437 31.6957 63.8184 31.6957C64.2765 31.6957 64.7098 31.788 65.1182 31.9727C65.5301 32.1538 65.8923 32.4165 66.2048 32.761C66.5209 33.1055 66.7677 33.521 66.9452 34.0075C67.1263 34.494 67.2169 35.0408 67.2169 35.6481V36.0529H60.7396V35.4616H66.567C66.567 34.8686 66.4463 34.3342 66.2048 33.8583C65.9633 33.3825 65.6349 33.0043 65.2194 32.7237C64.8039 32.4432 64.3369 32.3029 63.8184 32.3029C63.2751 32.3029 62.7904 32.4556 62.3643 32.761C61.9417 33.0629 61.6061 33.4712 61.3575 33.9861C61.1125 34.5011 60.9846 35.0763 60.974 35.712V35.9783C60.974 36.6602 61.0929 37.2727 61.3309 37.8161C61.5724 38.3558 61.9168 38.7837 62.3643 39.0998C62.8117 39.4123 63.3479 39.5685 63.9729 39.5685C64.4204 39.5685 64.8021 39.494 65.1182 39.3448C65.4378 39.1921 65.6988 39.0075 65.9012 38.7908C66.1036 38.5742 66.2563 38.3647 66.3593 38.1623L66.9506 38.402C66.8263 38.6754 66.6327 38.9489 66.3699 39.2223C66.1107 39.4922 65.7805 39.7177 65.3792 39.8988C64.9814 40.0799 64.5127 40.1705 63.9729 40.1705ZM69.4541 43.0682V31.8182H70.088V33.6452H70.1679C70.2957 33.2937 70.4751 32.9705 70.7059 32.6758C70.9403 32.381 71.2297 32.1449 71.5741 31.9673C71.9221 31.7862 72.3305 31.6957 72.7993 31.6957C73.4598 31.6957 74.0351 31.8768 74.5251 32.239C75.0152 32.6012 75.3952 33.1019 75.665 33.7411C75.9349 34.3768 76.0699 35.1065 76.0699 35.9304C76.0699 36.7543 75.9332 37.4858 75.6597 38.125C75.3898 38.7607 75.0099 39.2614 74.5198 39.6271C74.0333 39.9893 73.4633 40.1705 72.8099 40.1705C72.3447 40.1705 71.9363 40.0817 71.5848 39.9041C71.2368 39.7266 70.9438 39.4904 70.7059 39.1957C70.4715 38.8974 70.2922 38.5707 70.1679 38.2156H70.104V43.0682H69.4541ZM70.0933 35.9251C70.0933 36.6211 70.1998 37.2443 70.4129 37.7947C70.626 38.3416 70.9314 38.7749 71.3291 39.0945C71.7268 39.4105 72.2009 39.5685 72.7513 39.5685C73.3089 39.5685 73.7865 39.4087 74.1842 39.0891C74.5855 38.766 74.8909 38.3292 75.1004 37.7788C75.3135 37.2283 75.42 36.6104 75.42 35.9251C75.42 35.2397 75.3153 34.6236 75.1057 34.0767C74.8962 33.5298 74.5926 33.0984 74.1949 32.7823C73.7971 32.4627 73.316 32.3029 72.7513 32.3029C72.1938 32.3029 71.7162 32.4609 71.3185 32.777C70.9243 33.0895 70.6207 33.5192 70.4076 34.0661C70.1981 34.6094 70.0933 35.229 70.0933 35.9251ZM80.4844 40.1758C80.0121 40.1758 79.5788 40.0817 79.1847 39.8935C78.794 39.7053 78.4798 39.43 78.2418 39.0678C78.0075 38.7056 77.8903 38.2653 77.8903 37.7468C77.8903 37.4059 77.9506 37.1058 78.0714 36.8466C78.1921 36.5874 78.3786 36.3636 78.6307 36.1754C78.8828 35.9872 79.206 35.8327 79.6001 35.712C79.9943 35.5877 80.4648 35.4918 81.0117 35.4244C81.4272 35.3746 81.7983 35.3267 82.125 35.2805C82.4517 35.2308 82.7074 35.1545 82.892 35.0515C83.0803 34.9485 83.1744 34.7923 83.1744 34.5827V34.2418C83.1744 33.6452 82.9862 33.1712 82.6097 32.8196C82.2333 32.468 81.7148 32.2923 81.0543 32.2923C80.4684 32.2923 79.9748 32.4219 79.5735 32.6811C79.1758 32.9368 78.897 33.267 78.7372 33.6719L78.1246 33.4428C78.2809 33.0522 78.5064 32.7273 78.8011 32.468C79.0994 32.2088 79.4403 32.0153 79.8239 31.8874C80.2109 31.7596 80.6158 31.6957 81.0384 31.6957C81.4041 31.6957 81.7521 31.7472 82.0824 31.8501C82.4162 31.9531 82.7127 32.1094 82.9719 32.3189C83.2347 32.5284 83.4425 32.7965 83.5952 33.1232C83.7479 33.4464 83.8242 33.8335 83.8242 34.2844V40H83.1744V38.5245H83.1264C82.9844 38.8299 82.7891 39.1087 82.5405 39.3608C82.2955 39.6094 81.9989 39.8082 81.6509 39.9574C81.3065 40.103 80.9176 40.1758 80.4844 40.1758ZM80.5483 39.5739C81.0597 39.5739 81.5124 39.4496 81.9066 39.201C82.3043 38.9489 82.6151 38.6044 82.8388 38.1676C83.0625 37.7308 83.1744 37.2354 83.1744 36.6815V35.4776C83.0927 35.5486 82.9737 35.6126 82.8175 35.6694C82.6648 35.7227 82.4908 35.7706 82.2955 35.8132C82.1037 35.8523 81.9013 35.8878 81.6882 35.9197C81.4787 35.9482 81.2745 35.9748 81.0756 35.9996C80.479 36.0707 79.9925 36.1808 79.6161 36.3299C79.2433 36.4755 78.9698 36.6673 78.7958 36.9052C78.6254 37.1431 78.5401 37.4308 78.5401 37.7681C78.5401 38.3256 78.7319 38.766 79.1154 39.0891C79.4989 39.4123 79.9766 39.5739 80.5483 39.5739ZM86.5488 40V31.8182H87.1827V33.0966H87.2413C87.4189 32.6776 87.7189 32.342 88.1415 32.0898C88.5641 31.8342 89.0453 31.7063 89.5851 31.7063C89.6419 31.7063 89.6987 31.7063 89.7555 31.7063C89.8123 31.7063 89.8656 31.7081 89.9153 31.7116V32.3668C89.8727 32.3633 89.8212 32.358 89.7608 32.3509C89.704 32.3402 89.633 32.3349 89.5478 32.3349C89.0932 32.3349 88.6884 32.4325 88.3333 32.6278C87.9817 32.8232 87.7047 33.093 87.5023 33.4375C87.2999 33.7784 87.1987 34.169 87.1987 34.6094V40H86.5488ZM95.0662 31.8182V32.3988H91.492V31.8182H95.0662ZM92.7012 29.858H93.3457V38.0664C93.3457 38.4002 93.4096 38.6737 93.5375 38.8867C93.6689 39.0962 93.8393 39.2525 94.0488 39.3555C94.2619 39.4549 94.4892 39.5046 94.7306 39.5046C94.8478 39.5046 94.949 39.4957 95.0343 39.478C95.123 39.4602 95.2065 39.4371 95.2846 39.4087L95.4444 40C95.345 40.0355 95.2349 40.0657 95.1142 40.0906C94.9934 40.119 94.8514 40.1332 94.688 40.1332C94.3471 40.1332 94.024 40.0568 93.7186 39.9041C93.4167 39.7514 93.1717 39.5295 92.9835 39.2383C92.7953 38.9471 92.7012 38.5955 92.7012 38.1836V29.858ZM97.4766 40V31.8182H98.1104V33.054H98.1744C98.3306 32.642 98.6005 32.3153 98.984 32.0739C99.3675 31.8324 99.8292 31.7116 100.369 31.7116C100.962 31.7116 101.44 31.8537 101.802 32.1378C102.168 32.4219 102.43 32.8072 102.59 33.2937H102.649C102.809 32.8143 103.094 32.4308 103.506 32.1431C103.922 31.8555 104.433 31.7116 105.04 31.7116C105.832 31.7116 106.436 31.962 106.852 32.4627C107.271 32.9599 107.48 33.6417 107.48 34.5082V40H106.83V34.5082C106.83 33.8263 106.667 33.2901 106.34 32.8995C106.013 32.5089 105.534 32.3136 104.902 32.3136C104.227 32.3136 103.709 32.5249 103.347 32.9474C102.984 33.37 102.803 33.908 102.803 34.5614V40H102.153V34.4656C102.153 33.8299 101.994 33.3132 101.674 32.9155C101.354 32.5142 100.875 32.3136 100.236 32.3136C99.8026 32.3136 99.4279 32.413 99.1119 32.6119C98.7994 32.8107 98.5561 33.0842 98.3821 33.4322C98.2116 33.7802 98.1264 34.1797 98.1264 34.6307V40H97.4766ZM113.367 40.1705C112.629 40.1705 111.986 39.9876 111.439 39.6218C110.892 39.256 110.47 38.7553 110.171 38.1197C109.873 37.484 109.724 36.7596 109.724 35.9464C109.724 35.1296 109.873 34.4016 110.171 33.7624C110.473 33.1232 110.887 32.619 111.413 32.2496C111.938 31.8803 112.538 31.6957 113.213 31.6957C113.671 31.6957 114.104 31.788 114.513 31.9727C114.925 32.1538 115.287 32.4165 115.599 32.761C115.915 33.1055 116.162 33.521 116.34 34.0075C116.521 34.494 116.611 35.0408 116.611 35.6481V36.0529H110.134V35.4616H115.962C115.962 34.8686 115.841 34.3342 115.599 33.8583C115.358 33.3825 115.029 33.0043 114.614 32.7237C114.198 32.4432 113.731 32.3029 113.213 32.3029C112.67 32.3029 112.185 32.4556 111.759 32.761C111.336 33.0629 111.001 33.4712 110.752 33.9861C110.507 34.5011 110.379 35.0763 110.369 35.712V35.9783C110.369 36.6602 110.487 37.2727 110.725 37.8161C110.967 38.3558 111.311 38.7837 111.759 39.0998C112.206 39.4123 112.742 39.5685 113.367 39.5685C113.815 39.5685 114.197 39.494 114.513 39.3448C114.832 39.1921 115.093 39.0075 115.296 38.7908C115.498 38.5742 115.651 38.3647 115.754 38.1623L116.345 38.402C116.221 38.6754 116.027 38.9489 115.764 39.2223C115.505 39.4922 115.175 39.7177 114.774 39.8988C114.376 40.0799 113.907 40.1705 113.367 40.1705ZM119.498 34.6946V40H118.849V31.8182H119.483V33.1126H119.546C119.738 32.69 120.045 32.3509 120.468 32.0952C120.891 31.8395 121.393 31.7116 121.975 31.7116C122.526 31.7116 123.009 31.8288 123.424 32.0632C123.843 32.2976 124.17 32.6314 124.404 33.0646C124.642 33.4943 124.761 34.0075 124.761 34.604V40H124.111V34.6307C124.111 33.9347 123.904 33.3754 123.488 32.9528C123.076 32.5266 122.531 32.3136 121.853 32.3136C121.398 32.3136 120.994 32.413 120.638 32.6119C120.283 32.8107 120.005 33.0895 119.802 33.4482C119.6 33.8033 119.498 34.2188 119.498 34.6946ZM130.354 31.8182V32.3988H126.78V31.8182H130.354ZM127.989 29.858H128.634V38.0664C128.634 38.4002 128.698 38.6737 128.826 38.8867C128.957 39.0962 129.127 39.2525 129.337 39.3555C129.55 39.4549 129.777 39.5046 130.019 39.5046C130.136 39.5046 130.237 39.4957 130.322 39.478C130.411 39.4602 130.495 39.4371 130.573 39.4087L130.733 40C130.633 40.0355 130.523 40.0657 130.402 40.0906C130.282 40.119 130.139 40.1332 129.976 40.1332C129.635 40.1332 129.312 40.0568 129.007 39.9041C128.705 39.7514 128.46 39.5295 128.272 39.2383C128.083 38.9471 127.989 38.5955 127.989 38.1836V29.858Z" fill="#EEEDED"/>
</svg>
